<?xml version="1.0" encoding="utf-8"?><!-- Uploaded to: SVG Repo, www.svgrepo.com, Generator: SVG Repo Mixer Tools -->
<svg fill="#000000" width="800px" height="800px" viewBox="0 0 24 24" id="game-console-cable" data-name="Flat Line" xmlns="http://www.w3.org/2000/svg" class="icon flat-line"><path id="secondary" d="M20.42,10.71a4,4,0,0,0-4-3.71H15l-.5,2h-5L9,7H7.57a4,4,0,0,0-4,3.71l-.57,8A2.12,2.12,0,0,0,5.24,21a2.24,2.24,0,0,0,2-1.82L8,15.79a1,1,0,0,1,1-.79h6.12a1,1,0,0,1,1,.79l.73,3.39a2.24,2.24,0,0,0,2,1.82A2.12,2.12,0,0,0,21,18.72Z" style="fill: rgb(44, 169, 188); stroke-width: 2;"></path><path id="primary" d="M15,7H9l.5,2h5ZM12,3V7m4.43,0a4,4,0,0,1,4,3.72l.57,8A2.12,2.12,0,0,1,18.76,21a2.24,2.24,0,0,1-2-1.82L16,15.79a1,1,0,0,0-1-.79H8.94a1,1,0,0,0-1,.79l-.73,3.39a2.24,2.24,0,0,1-2,1.82A2.12,2.12,0,0,1,3,18.72l.57-8A4,4,0,0,1,7.57,7Z" style="fill: none; stroke: rgb(0, 0, 0); stroke-linecap: round; stroke-linejoin: round; stroke-width: 2;"></path></svg>